<?xml version="1.0" encoding="UTF-8" standalone="no"?>
<!-- Generator: Adobe Illustrator 25.4.1, SVG Export Plug-In . SVG Version: 6.00 Build 0)  -->

<svg
   version="1.1"
   id="Layer_1"
   x="0px"
   y="0px"
   viewBox="0 0 59.345 58.903997"
   xml:space="preserve"
   sodipodi:docname="IITMOD-Logo.svg"
   width="59.345001"
   height="58.903999"
   inkscape:version="1.2 (dc2aedaf03, 2022-05-15)"
   xmlns:inkscape="http://www.inkscape.org/namespaces/inkscape"
   xmlns:sodipodi="http://sodipodi.sourceforge.net/DTD/sodipodi-0.dtd"
   xmlns="http://www.w3.org/2000/svg"
   xmlns:svg="http://www.w3.org/2000/svg"><defs
   id="defs96" /><sodipodi:namedview
   id="namedview94"
   pagecolor="#ffffff"
   bordercolor="#000000"
   borderopacity="0.25"
   inkscape:showpageshadow="2"
   inkscape:pageopacity="0.0"
   inkscape:pagecheckerboard="0"
   inkscape:deskcolor="#d1d1d1"
   showgrid="false"
   inkscape:zoom="5.4876177"
   inkscape:cx="84.645109"
   inkscape:cy="31.069949"
   inkscape:window-width="1920"
   inkscape:window-height="1011"
   inkscape:window-x="-9"
   inkscape:window-y="-9"
   inkscape:window-maximized="1"
   inkscape:current-layer="g91" />
<style
   type="text/css"
   id="style2">
	.st0{fill:#781E19;}
	.st1{fill:#955855;}
	.st2{fill:#A26C6A;}
	.st3{fill:#AA7775;}
	.st4{fill:#D6BDBB;}
	.st5{fill:#FFFFFF;}
	.st6{fill:#FCFCFE;}
	.st7{fill:#C29D9B;}
	.st8{fill:#D6A64F;}
	.st9{fill:#641514;}
	.st10{fill:#181412;}
	.st11{fill:#F2E1C5;}
	.st12{fill:#CC111B;}
	.st13{fill:#C7121B;}
	.st14{fill:#C4111C;}
	.st15{enable-background:new    ;}
	.st16{fill:#363636;}
</style>
<g
   id="g91">
	<g
   id="Group_507"
   transform="translate(-26.148,-25.545)">
		<path
   id="Path_340"
   class="st0"
   d="M 55.8,84.4 C 49.4,84.4 43.2,82.3 38,78.5 34.7,76.1 32,73 30,69.4 c -1.9,-3.3 -3.2,-7 -3.6,-10.8 -0.8,-6.1 0.4,-12.3 3.3,-17.7 1.9,-3.5 4.6,-6.7 7.8,-9.1 12.1,-9.5 29.4,-8.1 40,3.1 5.7,6.1 8.6,14.3 7.9,22.6 -0.5,6.4 -3.1,12.4 -7.4,17.2 -2.3,2.5 -4.9,4.6 -7.9,6.2 -2.5,1.3 -5.2,2.3 -8.1,2.9 -2.1,0.4 -4.2,0.6 -6.2,0.6 z" />
		<path
   id="Path_341"
   class="st1"
   d="m 55.3,84.4 h 0.8 v 0 0 z" />
		<path
   id="Path_342"
   class="st2"
   d="m 56.1,84.4 v 0 c 0.2,0 0.3,-0.1 0.5,0 z" />
		<path
   id="Path_343"
   class="st3"
   d="m 55.3,84.4 v 0 h -0.4 c 0.1,-0.1 0.3,0 0.4,0 z" />
		<path
   id="Path_344"
   class="st4"
   d="m 57.1,84.4 v 0 h -0.3 c 0.1,-0.1 0.2,0 0.3,0 z" />
		<path
   id="Path_345"
   class="st5"
   d="M 55.8,78 C 50.8,78 46,76.4 42,73.4 39.4,71.5 37.3,69.1 35.7,66.3 34.2,63.7 33.2,60.8 32.9,57.8 32.3,53 33.2,48.2 35.5,44 c 1.5,-2.8 3.6,-5.2 6,-7.1 9.5,-7.4 23,-6.4 31.2,2.4 4.5,4.7 6.7,11.1 6.1,17.6 -0.4,5 -2.4,9.7 -5.8,13.4 -1.8,2 -3.9,3.6 -6.2,4.9 -2,1.1 -4.1,1.8 -6.3,2.3 C 59,77.8 57.4,78 55.8,78 Z" />
		<path
   id="Path_346"
   class="st5"
   d="m 58.5,80.6 c 0,-0.4 0,-0.4 0.4,-0.5 -0.1,-0.2 -0.2,-0.4 -0.5,-0.3 -0.2,0.1 -0.4,0 -0.4,-0.2 -0.2,-0.3 -0.4,-0.5 -0.7,-0.8 -0.2,-0.2 -0.5,-0.3 -0.8,-0.4 -0.4,-0.1 -0.8,0.2 -0.9,0.6 0,0.1 0,0.2 0,0.3 0,0.2 0.1,0.3 0.2,0.5 -1.5,0 -3,-0.1 -4.5,-0.4 0.1,0.2 0.1,0.4 0.3,0.4 0.4,0.1 0.4,0.1 0.3,0.5 v 0.1 c -0.1,0.2 0,0.5 -0.2,0.6 -0.2,0.1 -0.4,-0.1 -0.6,-0.1 -0.2,0 -0.2,-0.1 -0.2,-0.2 0,-0.2 0.1,-0.4 0.1,-0.7 0.1,-0.4 -0.1,-0.8 -0.3,-1 -0.2,-0.2 -0.5,-0.2 -0.7,0 0,0.1 -0.1,0.1 -0.2,0.1 C 49.6,79 49.4,79 49.2,78.9 49.1,78.9 49.1,78.8 49.1,78.8 49,78.3 48.8,77.8 48.5,77.4 48.3,77.1 48,77 47.7,76.9 47.4,76.8 47,77.1 46.9,77.4 46.8,77.6 46.8,77.9 46.8,78.1 46.4,77.9 46,77.8 45.6,77.6 45.5,77.5 45.5,77.5 45.5,77.4 45.5,77 45.4,76.5 45.2,76.2 45.1,76 45,75.8 44.8,75.6 c -0.3,-0.3 -0.8,-0.3 -1.1,0 -0.1,0.1 -0.2,0.2 -0.2,0.3 -0.1,0.2 -0.1,0.3 -0.1,0.5 L 42.7,76 c 0,0.3 0,0.5 0.3,0.6 0.1,0 0.1,0.1 0.1,0.2 -0.4,0.6 -0.7,1.2 -1.1,1.8 -0.1,0.1 -0.1,0.2 0,0.3 0.1,0.1 0.2,0.2 0.2,0.3 L 43.5,77 c 0.2,0.2 0.5,0.3 0.8,0.4 0.1,0 0.2,0.1 0.1,0.2 0,0.2 -0.1,0.4 -0.3,0.6 -0.1,0.1 -0.3,0.2 -0.3,-0.1 0,-0.1 -0.1,-0.2 -0.2,-0.2 -0.1,0 -0.2,0.1 -0.2,0.2 0,0.1 0,0.2 0,0.3 0.1,0.6 0.2,1.1 0.4,1.7 0,0.1 0.1,0.1 0.2,0.1 0.1,0 0.2,-0.1 0.1,-0.2 -0.2,-0.2 -0.3,-0.5 -0.3,-0.8 -0.1,-0.2 -0.1,-0.3 0.2,-0.3 0.1,0 0.2,-0.1 0.3,-0.2 0.1,-0.1 0.1,-0.1 0.2,0 0.1,0.3 0.4,0.6 0.8,0.7 -0.1,0.2 -0.2,0.5 -0.3,0.7 -0.1,0.1 -0.1,0.2 0,0.3 0.1,0.1 0.1,0.2 0.2,0.3 l 0.9,-1.9 c 0,-0.1 0.1,-0.2 0.2,-0.3 0.1,-0.1 0.2,0.1 0.4,0.1 0.2,0 0.2,0.1 0.1,0.2 -0.2,0.5 -0.4,1.1 -0.6,1.6 -0.2,0.3 -0.1,0.6 0.2,0.8 0,0 0,-0.1 0.1,-0.1 0.2,-0.6 0.5,-1.3 0.7,-1.9 0.1,-0.1 0.1,-0.3 0.2,-0.3 0.1,-0.1 0.2,0.1 0.3,0.1 0.6,0.2 1.2,0.4 1.8,0.5 0.2,0.1 0.1,0.2 0.1,0.2 0,0 -0.1,0.2 -0.2,0.2 -0.2,-0.1 -0.3,-0.1 -0.5,-0.2 -0.3,-0.1 -0.5,-0.1 -0.8,0.1 -0.2,0.2 -0.2,0.5 0,0.7 0,0.1 0,0.1 -0.1,0.2 -0.1,0.1 -0.3,0 -0.3,-0.1 -0.1,-0.1 0,-0.2 0.1,-0.3 0.1,-0.1 0.1,-0.1 0,-0.2 -0.1,-0.1 -0.1,-0.2 -0.2,-0.2 0,-0.1 -0.1,-0.1 -0.1,-0.1 -0.2,0.1 -0.4,0.4 -0.3,0.6 v 0.1 c 0.1,0.1 0.2,0.2 0.3,0.3 0.1,0.1 0.1,0.1 0.1,0.2 -0.1,0.1 -0.1,0.3 0,0.4 0.2,0.4 0.7,0.6 1.2,0.5 0.2,0 0.3,-0.2 0.4,-0.2 0.1,0.1 0.1,0.3 0.2,0.5 0,0.1 0.1,0.1 0.2,0.1 0.1,0 0.1,-0.1 0.1,-0.2 -0.1,-0.2 -0.2,-0.3 -0.3,-0.5 -0.1,-0.1 -0.2,-0.2 0.1,-0.3 0.2,-0.1 0.2,-0.2 0.2,-0.4 0,-0.2 -0.2,-0.3 -0.4,-0.3 -0.2,0 -0.3,0 -0.3,0.2 0,0.1 -0.1,0.1 -0.1,0.1 -0.1,0 -0.2,-0.1 -0.4,-0.1 -0.2,-0.1 -0.3,-0.3 -0.2,-0.5 0.1,-0.2 0.3,-0.3 0.5,-0.2 v 0 c 0.2,0 0.3,0.1 0.5,0.1 0.2,0.1 0.4,0.2 0.6,0.1 0.2,-0.1 0.1,-0.4 0.2,-0.6 0,-0.1 0,-0.2 0.1,-0.2 0.1,0 0.2,0.1 0.2,0.2 0,0.2 0.2,0.3 0.3,0.4 0.2,0.1 0.2,0.3 0.2,0.5 0,0.2 -0.1,0.2 -0.2,0.2 -0.2,0 -0.3,0 -0.3,0.2 0,0.3 0.2,0.6 0.5,0.8 0.2,0.1 0.3,0 0.3,-0.1 0,-0.4 0.2,-0.3 0.4,-0.3 0.1,0 0.1,0 0.2,0 0.3,0.1 0.3,0.1 0.2,0.3 -0.1,0.5 -0.1,0.5 0.3,0.8 0.1,-0.7 0.2,-1.4 0.4,-2.1 0,-0.1 0,-0.3 0.1,-0.4 0.1,-0.1 0.2,0 0.3,0 h 0.1 l 1.5,0.1 c 0.1,0 0.1,0 0.1,0.1 0,0.3 0,0.6 -0.1,0.9 C 54.6,81 54.5,80.9 54.4,80.8 54.2,80.6 54,80.5 53.7,80.5 53.3,80.4 53,80.7 52.9,81 c 0,0.1 0,0.1 0,0.2 0.1,0.6 0.7,0.9 1.3,0.8 h 0.1 c 0.1,-0.1 0.2,-0.1 0.3,-0.1 -0.1,0.4 0,0.7 0.4,0.8 0,-0.7 0.1,-1.4 0.2,-2.1 0,-0.1 0,-0.3 0,-0.4 0.1,-0.2 0.3,0 0.4,-0.1 0.2,-0.1 0.2,0 0.2,0.2 0,0.6 0,1.2 0,1.7 0,0.5 0,0.5 0.5,0.7 0,-0.8 0,-1.6 0,-2.3 0,-0.2 0,-0.3 0.3,-0.3 0.5,0 0.9,-0.1 1.4,-0.1 0.5,0 0.3,-0.1 0.4,0.3 0,0.1 0,0.2 -0.2,0.2 -0.2,0 -0.5,0.1 -0.8,0 -0.4,0 -0.7,0.2 -0.7,0.6 0,0.2 0,0.3 0.1,0.5 0.2,0.3 0.4,0.6 0.7,0.8 0.1,0.1 0.1,0.2 0.2,0.1 0.1,-0.1 0,-0.2 -0.1,-0.2 -0.3,-0.2 -0.4,-0.5 -0.5,-0.8 0,-0.2 0.1,-0.4 0.3,-0.4 h 0.1 c 0.2,0 0.5,0 0.7,-0.1 0.1,0 0.2,0 0.2,0.1 0,0.2 0.1,0.5 0,0.8 0,0.4 0.2,0.6 0.5,0.6 0,-0.1 0,-0.2 0,-0.3 -0.3,-0.4 -0.3,-1 -0.4,-1.6 z m -15.1,-4 c -0.1,0 -0.1,-0.1 -0.1,-0.2 v 0 C 43.5,76 44,75.6 44.5,76.1 44.8,76.5 45,77 45.1,77.5 44.5,77.3 44,77 43.4,76.6 Z m 2,1.6 c -0.1,0.2 -0.2,0.3 -0.2,0.5 -0.1,0.2 -0.2,0.2 -0.4,0.2 -0.3,0 -0.6,-0.2 -0.6,-0.5 0,-0.1 0,-0.1 0,-0.2 0.1,-0.2 0.1,-0.3 0.1,-0.5 0,-0.1 0,-0.1 0.1,-0.1 0.3,0.1 0.5,0.3 0.8,0.4 0.2,0.1 0.2,0.1 0.2,0.2 z m 1.6,0.1 c -0.1,-0.1 -0.1,-0.1 -0.1,-0.2 0.2,-0.5 0.5,-0.9 1.2,-0.4 0.4,0.3 0.7,0.8 0.8,1.2 -0.7,-0.1 -1.3,-0.3 -1.9,-0.6 z m 0.9,2.7 c 0.2,0.1 0.3,0.2 0.5,0.2 -0.2,0.2 -0.4,0.3 -0.6,0.3 -0.1,0 -0.3,0 -0.3,-0.2 0,-0.1 0,-0.2 0.1,-0.3 0,0 0.2,0 0.3,0 z m 2.6,-1 c -0.1,0.1 -0.3,-0.2 -0.3,-0.4 0,-0.2 0.1,-0.3 0.3,-0.3 0.1,0 0.2,0.1 0.2,0.2 -0.1,0.2 -0.1,0.4 -0.2,0.5 z m 3.8,1.5 c -0.2,0.1 -0.5,0.2 -0.7,0.3 -0.3,0 -0.5,-0.1 -0.6,-0.3 0,-0.2 0.2,-0.4 0.5,-0.5 0.1,0 0.1,0 0.2,0 0.3,0 0.5,0.2 0.6,0.5 0.1,0 0,0 0,0 z m 2.9,-1.6 c -0.4,0 -0.8,0.1 -1.2,0 -0.1,0 -0.2,0 -0.2,-0.2 -0.1,-0.4 0.1,-0.7 0.5,-0.8 0.1,0 0.3,0 0.4,0 0.5,0.2 0.9,0.5 1.2,0.9 -0.3,0 -0.5,0.1 -0.7,0.1 z" />
		<path
   id="Path_347"
   class="st5"
   d="m 68.8,77.2 c -0.2,-0.3 -0.2,-0.3 0.1,-0.5 v 0 c -0.2,-0.2 -0.5,-0.2 -0.7,0 -0.3,0.2 -0.7,0.4 -1,0.6 -1,0.4 -1.9,0.9 -2.9,1.2 -1.2,0.4 -2.4,0.8 -3.6,1 -0.5,0.1 -1,0.2 -1.4,0.3 0.1,0.2 0.4,0.3 0.7,0.2 0.3,-0.1 0.7,-0.1 1,-0.2 0.1,0 0.1,0 0.2,0.1 0,0.2 0.1,0.5 0.1,0.7 -0.6,-0.3 -0.7,-0.3 -1,-0.2 -0.3,0.1 -0.4,0.3 -0.4,0.6 0.1,0.5 0.6,0.8 1.1,0.6 0.1,0 0.2,-0.1 0.3,-0.2 v 0 c 0.1,0.3 0.1,0.7 0.5,0.8 0.1,0 0.1,-0.1 0.1,-0.2 -0.1,-0.3 -0.1,-0.5 -0.2,-0.8 -0.1,-0.3 0.1,-0.5 0.3,-0.7 0.2,-0.1 0.4,-0.1 0.5,0.1 0,0.1 0.1,0.1 0.1,0.2 0,0.2 0,0.4 -0.1,0.6 -0.1,0.1 0,0.2 0.1,0.2 0.1,0 0.1,0.1 0.2,0.1 0.1,0.1 0.1,0 0.2,-0.1 0.1,-0.2 0.1,-0.5 0.1,-0.7 -0.2,-0.7 -0.8,-1 -1.3,-0.6 0,-0.1 0,-0.1 0,-0.2 -0.1,-0.5 -0.1,-0.5 0.4,-0.6 0.3,0 0.6,-0.1 0.9,-0.3 0.1,-0.1 0.1,0 0.2,0.1 0.1,0.2 0.2,0.5 0.2,0.7 0.1,0.2 0.1,0.2 -0.1,0.3 -0.2,0.1 -0.2,0.2 -0.1,0.4 0.2,0.2 0.3,0.3 0.6,0.4 0.1,0.1 0.3,0.1 0.4,0 0.1,-0.1 0,-0.2 0,-0.4 0,-0.2 0,-0.2 0.1,-0.2 0.2,-0.1 0.4,-0.1 0.6,-0.2 0.1,0 0.2,0 0.2,0.1 0,0.1 0,0.1 0.1,0.2 0.1,0.4 0.2,0.4 0.7,0.4 0,-0.1 -0.1,-0.2 -0.1,-0.2 -0.2,-0.7 -0.5,-1.4 -0.7,-2.1 0,0 -0.1,-0.1 0,-0.2 0.7,-0.3 1.4,-0.6 2.1,-0.9 0.2,-0.1 0.2,-0.1 0.3,0.1 0,0.1 0,0.1 0.1,0.2 0.1,0.2 0.1,0.2 -0.1,0.3 -0.4,0.2 -0.8,0.4 -1.2,0.6 0.2,0.1 0.3,0.1 0.5,0.2 0.2,0.1 0.3,0.2 0.5,0.3 0.1,0.1 0.2,0.3 0,0.5 -0.1,0.1 -0.2,0.1 -0.3,0.1 -0.2,0 -0.4,0 -0.5,-0.1 -0.2,-0.1 -0.4,-0.3 -0.6,-0.5 0,0 -0.1,-0.1 -0.1,0 -0.1,0 -0.1,0.1 0,0.1 0.4,0.5 0.9,0.8 1.6,0.9 0.3,0 0.6,-0.2 0.6,-0.5 0,-0.2 -0.1,-0.4 -0.2,-0.5 -0.2,-0.1 -0.3,-0.2 -0.5,-0.3 0.2,-0.1 0.4,-0.2 0.6,-0.3 0.1,-0.1 0.2,0 0.2,0.1 0.1,0.3 0.3,0.6 0.4,0.9 0,0.1 0.1,0.2 0.2,0.2 0.1,0 0.2,0 0.4,0 0,-0.1 0,-0.2 -0.1,-0.2 -0.3,-0.6 -0.5,-1.2 -0.8,-1.7 -0.1,-0.1 -0.1,-0.2 -0.2,-0.3 0,-0.2 0.2,-0.1 0.3,-0.2 0.1,-0.2 0.2,-0.1 0.2,0 0.3,0.5 0.6,1 0.9,1.5 0.2,0.4 0.3,0.4 0.7,0.3 z m -7.4,3.7 c -0.1,0.2 -0.3,0.3 -0.5,0.4 -0.1,0.1 -0.3,0 -0.4,-0.1 v 0 c 0,-0.1 0,-0.2 0,-0.2 0.2,-0.3 0.5,-0.4 0.9,-0.1 v 0 c 0,-0.1 0,-0.1 0,0 z m 3.4,-1.1 c 0,0.1 0,0.1 0,0 C 64.5,79.9 64.2,80.1 64,80 63.8,79.9 63.8,79.6 63.7,79.4 63.5,79 63.6,79 64,78.9 c 0.4,-0.2 0.4,-0.2 0.6,0.3 l 0.2,0.6 c 0.1,0 0.1,0 0,0 z" />
		<path
   id="Path_348"
   class="st5"
   d="m 81.2,54.9 c 0.6,0.2 1.2,0.3 1.7,0.5 0.2,0.1 0.6,0.1 0.7,0.2 0.1,0.2 0,0.5 0.1,0.7 0.1,0.2 -0.1,0.3 -0.3,0.3 -1,0 -1.9,0.1 -2.9,0.2 -0.2,0 -0.3,0 -0.3,-0.2 0,-0.5 0,-0.5 0.5,-0.6 0.7,0 1.4,-0.1 2.2,-0.1 -0.8,-0.2 -1.6,-0.4 -2.3,-0.7 -0.1,0 -0.3,0 -0.3,-0.1 0,-0.2 0,-0.4 0,-0.5 0,-0.1 0.1,-0.1 0.2,-0.1 0.7,-0.2 1.5,-0.5 2.2,-0.6 0.1,0 0.1,0 0.2,-0.1 L 81,53.7 c -0.2,0 -0.4,0 -0.6,0 -0.1,0 -0.2,0 -0.2,-0.2 -0.1,-0.6 -0.1,-0.6 0.5,-0.6 0.9,0 1.9,0.1 2.8,0.1 0.1,0 0.2,0 0.2,0.2 0,0.3 0.1,0.6 0,0.8 -0.1,0.2 -0.5,0.2 -0.8,0.3 -0.5,0.3 -1.1,0.5 -1.7,0.6 z" />
		<path
   id="Path_349"
   class="st5"
   d="m 35.4,70.4 -1.3,1.1 c 0,0 -0.1,0 -0.1,0.1 -0.1,0.1 -0.3,0.3 -0.4,0.3 -0.2,-0.1 -0.3,-0.3 -0.4,-0.4 -0.1,-0.1 0,-0.1 0,-0.2 0.8,-0.7 1.7,-1.4 2.6,-2 0.1,-0.1 0.1,0 0.2,0 0.1,0.2 0.2,0.3 0.3,0.4 0.1,0.1 0.1,0.2 0,0.2 -0.3,0.6 -0.5,1.2 -0.8,1.9 -0.1,0.2 -0.2,0.4 -0.3,0.6 0.2,-0.1 0.3,-0.2 0.4,-0.3 0.5,-0.4 1,-0.8 1.4,-1.2 0.1,-0.1 0.2,-0.1 0.2,0 0.4,0.4 0.4,0.4 -0.1,0.8 -0.5,0.4 -1.1,0.9 -1.6,1.3 -0.1,0.1 -0.2,0.1 -0.3,0.2 -0.2,0.1 -0.4,0.4 -0.4,0.3 -0.2,-0.2 -0.4,-0.4 -0.6,-0.6 0,-0.1 0,-0.1 0,-0.2 0.3,-0.7 0.6,-1.4 0.9,-2.1 0.3,-0.1 0.3,-0.1 0.3,-0.2 z" />
		<path
   id="Path_350"
   class="st5"
   d="M 30.7,50.2 C 30,50.1 29.3,50 28.5,49.9 c -0.1,0 -0.2,0 -0.2,-0.2 0.1,-0.5 0.1,-0.6 0.6,-0.5 0.9,0.1 1.8,0.3 2.8,0.4 0.2,0 0.2,0 0.2,0.2 -0.1,0.6 -0.1,0.6 -0.7,0.8 -0.4,0.1 -0.7,0.3 -1.1,0.4 -0.4,0.1 -0.7,0.2 -1.1,0.4 0.3,0 0.6,0.1 0.9,0.1 0.5,0.1 0.9,0.1 1.4,0.2 0.1,0 0.2,0.1 0.2,0.2 -0.1,0.5 -0.1,0.5 -0.6,0.5 -0.9,-0.2 -1.8,-0.3 -2.8,-0.4 -0.2,0 -0.2,-0.1 -0.2,-0.2 0,-0.5 0.3,-0.9 0.8,-1 0.6,-0.2 1.2,-0.4 1.8,-0.6 0.1,0.1 0.2,0.1 0.2,0 z" />
		<path
   id="Path_351"
   class="st5"
   d="m 29.2,59.2 c 0.5,-0.1 1.1,-0.2 1.6,-0.2 0.3,0 0.6,-0.1 0.9,-0.1 0.1,0 0.1,0 0.2,0.1 0.1,0.6 0.1,0.6 -0.5,0.7 -0.9,0.1 -1.8,0.2 -2.8,0.3 -0.2,0 -0.2,0 -0.2,-0.2 -0.2,-0.4 0,-0.9 0.4,-1.1 0.6,-0.3 1.1,-0.8 1.7,-1.1 -0.2,0 -0.3,0.1 -0.5,0.1 -0.6,0.1 -1.1,0.2 -1.7,0.2 -0.1,0 -0.2,0 -0.2,-0.1 v 0 C 28,57.2 28,57.3 28.6,57.2 c 0.9,-0.1 1.8,-0.2 2.8,-0.4 0.2,0 0.2,0 0.2,0.2 0.2,0.4 0,0.8 -0.4,1 -0.4,0.2 -0.7,0.5 -1.1,0.8 -0.4,0.1 -0.6,0.3 -0.9,0.4 z" />
		<path
   id="Path_352"
   class="st5"
   d="m 70.5,34.4 c 0.1,-0.1 0.2,-0.2 0.2,-0.2 0.3,-0.5 0.7,-1.1 1,-1.6 0.1,-0.1 0.1,-0.1 0.2,0 0.5,0.3 0.5,0.3 0.2,0.8 -0.5,0.8 -1,1.5 -1.5,2.3 -0.1,0.1 -0.1,0.2 -0.3,0.1 -0.5,-0.4 -0.5,-0.4 -0.5,-1 0,-0.6 0.1,-1.4 0.2,-2.1 -0.1,0 -0.1,0.1 -0.2,0.2 -0.4,0.6 -0.8,1.2 -1.1,1.7 -0.1,0.1 -0.1,0.2 -0.3,0.1 C 68,34.4 68,34.4 68.2,34 c 0.5,-0.8 1,-1.5 1.5,-2.3 0.1,-0.1 0.2,-0.2 0.3,-0.1 0.1,0 0.1,0.1 0.2,0.1 0.4,0.1 0.4,0.4 0.4,0.8 0.1,0.5 0.1,1.2 -0.1,1.9 z" />
		<path
   id="Path_353"
   class="st5"
   d="m 82.5,62.5 c -1,-0.3 -2,-0.7 -3,-1 -0.1,0 -0.1,-0.1 -0.2,0 -0.3,0.6 -0.5,1.2 -0.5,1.8 0,0 0,0.1 0,0.2 v 0.1 c 0.2,0.7 0.8,1.2 1.5,1.3 0.7,0.2 1.4,-0.1 1.7,-0.7 0.3,-0.5 0.5,-1.1 0.6,-1.6 0,-0.1 0,-0.1 -0.1,-0.1 z m -0.7,0.7 c -0.1,0.5 -0.4,0.9 -0.9,1 -0.6,0.1 -1.1,-0.2 -1.4,-0.7 -0.1,-0.1 -0.1,-0.3 -0.1,-0.4 0,-0.1 0,-0.1 0,-0.2 0.1,-0.6 0.1,-0.6 0.6,-0.4 0.5,0.2 1,0.3 1.5,0.5 0.3,0.1 0.3,0.1 0.3,0.2 z" />
		<path
   id="Path_354"
   class="st5"
   d="m 35.3,68.2 c -0.2,-0.6 -0.6,-1.1 -1,-1.5 -0.3,-0.3 -0.7,-0.4 -1.1,-0.4 -0.6,0 -1.1,0.3 -1.5,0.7 -0.3,0.3 -0.4,0.8 -0.3,1.2 0.2,0.7 0.5,1.2 0.9,1.8 0.1,0.1 0.1,0.1 0.2,0 0.9,-0.5 1.8,-1 2.7,-1.6 0.1,-0.1 0.1,-0.1 0.1,-0.2 z m -1,-0.2 c -0.6,0.3 -1.2,0.7 -1.8,1 -0.1,0.1 -0.2,0 -0.2,-0.1 -0.3,-0.3 -0.4,-0.8 -0.2,-1.2 0.2,-0.4 0.7,-0.7 1.1,-0.7 0.5,0 1,0.3 1.1,0.8 0.1,0.1 0.1,0.1 0,0.2 z" />
		<path
   id="Path_355"
   class="st5"
   d="m 79.1,40.1 c -0.8,-0.3 -1.6,-0.2 -2.2,0.4 -0.5,0.4 -0.7,1.1 -0.4,1.7 0.2,0.7 0.8,1.1 1.5,1.1 0.7,0 1.4,-0.4 1.8,-1 0.5,-0.6 0.2,-1.7 -0.7,-2.2 0.1,0.1 0,0.1 0,0 z m -0.1,2 c -0.3,0.3 -0.7,0.5 -1.1,0.5 -0.4,0 -0.8,-0.2 -0.8,-0.6 0,-0.2 0,-0.3 0.1,-0.5 0.3,-0.5 0.8,-0.8 1.4,-0.8 0.3,0 0.6,0.2 0.8,0.5 0,0.4 -0.1,0.7 -0.4,0.9 z" />
		<path
   id="Path_356"
   class="st5"
   d="m 73.6,34.3 c -0.6,0 -1.2,0.4 -1.5,0.9 -0.4,0.5 -0.4,1.1 -0.1,1.6 0.3,0.6 0.9,1 1.5,1 0.7,0 1.4,-0.4 1.7,-1.1 0.4,-0.8 0.1,-1.8 -0.7,-2.2 -0.3,-0.1 -0.6,-0.2 -0.9,-0.2 z m -0.1,2.8 c -0.3,0 -0.7,-0.1 -0.8,-0.4 -0.1,-0.3 -0.1,-0.7 0.2,-1 0.2,-0.2 0.4,-0.4 0.6,-0.5 0.2,-0.1 0.5,-0.2 0.7,-0.2 0.3,0.1 0.6,0.4 0.6,0.7 -0.2,0.7 -0.7,1.3 -1.3,1.4 z" />
		<path
   id="Path_357"
   class="st5"
   d="m 47.7,28.6 c -0.9,0 -1.7,0.7 -1.7,1.6 v 0 c -0.1,1 0.7,1.8 1.7,1.9 0.9,0.1 1.7,-0.6 1.8,-1.5 v -0.1 c 0,-1 -0.7,-1.9 -1.8,-1.9 0.1,0 0,0 0,0 z m 0.4,2.9 c -0.4,0.1 -0.8,0 -1,-0.3 -0.3,-0.3 -0.4,-0.8 -0.3,-1.2 0,-0.3 0.2,-0.6 0.5,-0.7 0.3,-0.1 0.7,0 0.9,0.2 0.3,0.3 0.4,0.7 0.5,1.1 -0.1,0.5 -0.2,0.8 -0.6,0.9 z" />
		<path
   id="Path_358"
   class="st5"
   d="m 68.7,30.5 c 0,0 0,0.1 0,0 -0.5,1 -0.9,2 -1.4,2.9 -0.1,0.2 -0.1,0.2 -0.3,0.1 -0.1,-0.1 -0.2,-0.1 -0.3,-0.2 -0.3,0 -0.2,-0.2 -0.1,-0.3 0.2,-0.3 0.3,-0.6 0.5,-1 0.1,-0.1 0,-0.1 -0.1,-0.2 -0.3,-0.1 -0.7,-0.3 -1,-0.4 -0.1,-0.1 -0.1,0 -0.2,0.1 -0.2,0.3 -0.3,0.7 -0.5,1 -0.1,0.1 -0.1,0.2 -0.2,0.1 -0.2,-0.1 -0.4,-0.1 -0.5,-0.3 -0.1,-0.2 0.1,-0.3 0.2,-0.5 0.4,-0.8 0.8,-1.6 1.1,-2.4 0.1,-0.2 0.2,-0.2 0.3,-0.1 0.1,0.1 0.2,0.1 0.3,0.2 0.2,0 0.2,0.2 0.1,0.3 -0.2,0.3 -0.3,0.6 -0.4,0.9 -0.1,0.1 0,0.1 0.1,0.2 0.3,0.1 0.7,0.3 1,0.4 0.1,0.1 0.2,0 0.2,-0.1 0.1,-0.3 0.3,-0.6 0.4,-0.9 0.1,-0.1 0.1,-0.2 0.2,-0.1 0.1,0.1 0.3,0.1 0.4,0.2 0.1,0 0.2,0 0.2,0.1 z" />
		<path
   id="Path_359"
   class="st5"
   d="m 80.1,43.9 c 0.5,0 1,0.2 1.3,0.5 0.4,0.4 0.6,1 0.7,1.5 0,0.1 0,0.2 -0.2,0.2 -0.2,0 -0.3,0.1 -0.4,0 -0.1,0 -0.1,-0.2 -0.1,-0.4 0,-0.1 -0.1,-0.2 -0.1,-0.3 -0.1,-0.5 -0.5,-0.8 -1,-0.8 -0.5,0 -1,0.3 -1.2,0.8 -0.2,0.4 0.1,0.7 0.2,1 0,0 0.1,0.1 0.1,0 v 0 c 0.2,-0.1 0.4,-0.1 0.6,-0.2 0.1,0 0,-0.1 0,-0.1 0,-0.1 -0.1,-0.2 -0.1,-0.3 0,-0.1 0,-0.1 0.1,-0.2 0.4,-0.2 0.4,-0.2 0.6,0.2 0.1,0.2 0.2,0.4 0.3,0.7 0,0.1 0,0.1 -0.1,0.2 -0.5,0.2 -1,0.4 -1.4,0.6 -0.1,0 -0.2,0 -0.3,-0.1 -0.5,-0.6 -0.8,-1.3 -0.7,-2.1 0.1,-0.7 0.7,-1.1 1.4,-1.3 0.1,0.1 0.2,0.1 0.3,0.1 z" />
		<path
   id="Path_360"
   class="st5"
   d="M 80.9,66.6 C 80.1,66.2 79.3,65.8 78.5,65.4 78,65.1 78,65.1 77.7,65.6 c -0.1,0.2 0,0.2 0.1,0.3 0.3,0.1 0.6,0.3 0.9,0.4 0.1,0.1 0.2,0.1 0.1,0.2 -0.1,0.3 -0.4,0.4 -0.7,0.3 v 0 c -0.2,-0.1 -0.5,-0.1 -0.8,-0.2 -0.1,0 -0.2,0 -0.2,0.1 -0.1,0.2 -0.2,0.4 -0.3,0.6 0.6,0 1.2,0.4 1.8,0.1 0,0.1 0,0.2 0,0.3 0.2,0.5 0.7,0.8 1.2,0.6 0.2,-0.1 0.4,-0.2 0.5,-0.3 0.3,-0.4 0.6,-0.8 0.7,-1.3 0.1,0 0.1,0 -0.1,-0.1 z m -0.7,0.7 c -0.1,0.1 -0.1,0.3 -0.2,0.4 -0.1,0.2 -0.3,0.2 -0.5,0.1 -0.2,-0.1 -0.3,-0.3 -0.3,-0.5 0,-0.2 0.1,-0.4 0.2,-0.5 0.1,-0.1 0.1,0 0.2,0 0.2,0.1 0.4,0.2 0.6,0.3 0,0 0,0 0,0.2 z" />
		<path
   id="Path_361"
   class="st5"
   d="m 39,37.1 c -0.1,0.5 -0.4,1 -0.9,1.2 -0.4,0.2 -0.9,0.2 -1.3,-0.1 -0.2,-0.1 -0.4,-0.3 -0.5,-0.5 -0.4,-0.4 -0.8,-0.7 -1.2,-1.1 -0.1,-0.1 -0.1,-0.2 0,-0.3 0.4,-0.5 0.4,-0.5 0.9,0 0.3,0.3 0.7,0.7 1,1 0.1,0.1 0.3,0.3 0.5,0.3 0.2,0.1 0.5,0 0.6,-0.1 0.2,-0.2 0.2,-0.4 0.1,-0.7 -0.1,-0.2 -0.2,-0.4 -0.4,-0.5 -0.4,-0.4 -0.8,-0.8 -1.2,-1.2 -0.1,-0.1 -0.1,-0.2 0,-0.3 0.4,-0.4 0.4,-0.4 0.8,0 0.4,0.4 0.7,0.7 1.1,1.1 0.3,0.4 0.5,0.8 0.5,1.2 z" />
		<path
   id="Path_362"
   class="st5"
   d="m 32.8,63.3 c 0,-0.1 0,-0.1 -0.1,-0.2 -0.1,-0.4 -0.1,-0.4 -0.6,-0.4 -0.1,0 -0.2,0 -0.3,0 -0.1,0 -0.2,0 -0.2,-0.1 v 0 c -0.1,-0.2 -0.1,-0.4 -0.2,-0.6 -0.1,-0.1 0,-0.2 0.1,-0.3 0.2,-0.1 0.3,-0.2 0.5,-0.3 0.1,-0.1 0.1,-0.1 0.1,-0.2 C 32,61 32,60.8 31.9,60.5 c -1,0.7 -2,1.3 -3,1.9 -0.1,0.1 -0.1,0.1 -0.1,0.2 0.1,0.2 0.2,0.5 0.2,0.7 0,0.2 0.1,0.2 0.2,0.2 0.3,0 0.6,0 0.9,0 h 2.4 c 0.3,-0.1 0.4,-0.1 0.3,-0.2 z m -3.1,-0.6 1.2,-0.8 c 0.1,0.2 0.1,0.5 0.2,0.7 -0.4,0.1 -0.9,0.1 -1.4,0.1 z" />
		<path
   id="Path_363"
   class="st5"
   d="m 78.3,70.2 c -0.6,-0.8 -1.2,-1.6 -1.8,-2.3 -0.1,0.2 -0.2,0.3 -0.3,0.5 -0.1,0.2 -0.1,0.2 0,0.4 0.2,0.2 0.4,0.3 0.4,0.5 0,0.2 -0.2,0.4 -0.4,0.6 -0.1,0.2 -0.2,0.2 -0.5,0.2 -0.6,-0.2 -0.6,-0.2 -0.9,0.3 -0.1,0.2 -0.1,0.2 0.1,0.3 1,0.3 1.9,0.6 2.9,1 0.2,0.1 0.4,0.1 0.5,-0.2 0.1,-0.2 0.4,-0.4 0.4,-0.6 -0.1,-0.3 -0.3,-0.5 -0.4,-0.7 z m -0.5,0.6 -1.2,-0.5 c 0.1,-0.2 0.2,-0.3 0.4,-0.5 0.1,-0.1 0.1,-0.1 0.2,0 0.1,0.3 0.4,0.6 0.6,1 z" />
		<path
   id="Path_364"
   class="st5"
   d="M 83.2,59.1 C 83,59 82.8,58.9 82.5,58.8 L 80,57.6 c 0,0.2 -0.1,0.3 -0.1,0.5 -0.1,0.2 0,0.3 0.2,0.4 0.6,0.2 0.6,0.2 0.5,0.9 0,0.3 -0.1,0.4 -0.4,0.4 -0.6,0 -0.6,0.1 -0.7,0.7 0,0.1 0,0.2 0.2,0.2 1,-0.2 2.1,-0.3 3.1,-0.4 0.2,0 0.3,-0.1 0.3,-0.3 0,-0.2 0.1,-0.4 0.1,-0.6 0.2,-0.2 0.1,-0.3 0,-0.3 0.1,0 0.1,0 0,0 z m -1.8,0.6 c -0.1,0 -0.1,0 -0.1,-0.1 0,-0.2 0.1,-0.4 0.1,-0.6 l 1.3,0.6 c -0.5,0 -0.9,0 -1.3,0.1 z" />
		<path
   id="Path_365"
   class="st5"
   d="m 60.6,28.4 c -0.4,0 -0.7,-0.1 -1,-0.1 -0.2,0 -0.2,0 -0.2,0.2 -0.1,0.5 -0.1,0.5 0.4,0.6 0.2,0 0.3,0 0.5,0.1 0.1,0 0.3,0 0.3,0.1 0,0.2 0,0.4 -0.1,0.5 0,0.1 -0.1,0 -0.2,0 -0.3,0 -0.6,-0.1 -0.9,-0.1 -0.1,0 -0.2,0 -0.2,0.1 -0.1,0.7 -0.1,0.7 0.5,0.8 0.2,0 0.5,0.1 0.7,0.1 0.1,0 0.1,0 0.1,0.1 0,0.2 0,0.3 -0.1,0.5 0,0.1 -0.1,0.1 -0.2,0.1 -0.6,-0.1 -1.3,-0.2 -1.9,-0.3 -0.1,0 -0.1,-0.1 -0.1,-0.2 0.1,-0.9 0.3,-1.9 0.4,-2.8 0.1,-0.5 0.1,-0.5 0.5,-0.4 0.5,0.1 1,0.1 1.5,0.2 0.1,0 0.2,0.1 0.2,0.2 0,0.1 0,0.1 0,0.2 0.1,0.1 0,0.2 -0.2,0.1 z" />
		<path
   id="Path_366"
   class="st5"
   d="m 43,30.4 c 0.1,0 0.1,0.1 0.2,0.2 0.2,0.4 0.2,0.4 -0.1,0.6 -0.2,0.1 -0.5,0.3 -0.7,0.4 -0.1,0 -0.1,0.1 -0.1,0.2 0.3,0.5 0.3,0.5 0.8,0.2 0.1,0 0.2,-0.1 0.2,-0.1 0.4,-0.2 0.4,-0.2 0.6,0.2 0.1,0.1 0.1,0.2 -0.1,0.2 -0.3,0.2 -0.6,0.3 -0.8,0.5 -0.1,0.1 -0.1,0.1 -0.1,0.2 0.1,0.2 0.2,0.5 0.3,0.5 0.1,0 0.4,-0.2 0.5,-0.3 0.1,-0.1 0.4,-0.2 0.6,-0.3 0.1,0 0.1,0 0.2,0 0.3,0.4 0.3,0.4 -0.2,0.7 l -1.2,0.7 c -0.3,0.2 -0.3,0.2 -0.4,-0.1 -0.3,-0.5 -0.5,-1 -0.8,-1.4 -0.2,-0.4 -0.5,-0.8 -0.7,-1.2 -0.1,-0.1 -0.1,-0.2 0,-0.2 0.6,-0.3 1.1,-0.6 1.8,-1 z" />
		<path
   id="Path_367"
   class="st5"
   d="m 32.6,47.5 c 0,0.4 -0.2,0.9 -0.5,1.2 -0.1,0.1 -0.2,0.1 -0.3,0 -0.1,-0.1 -0.3,-0.1 -0.3,-0.2 0,-0.1 0.1,-0.2 0.2,-0.3 0.1,-0.2 0.2,-0.4 0.2,-0.6 0,-0.2 0,-0.3 -0.2,-0.4 -0.1,-0.1 -0.3,0 -0.4,0.1 -0.2,0.2 -0.3,0.3 -0.4,0.5 -0.2,0.3 -0.7,0.5 -1.2,0.3 -0.5,-0.2 -0.8,-0.8 -0.6,-1.3 0.1,-0.3 0.2,-0.6 0.4,-0.9 0.1,-0.1 0.1,-0.1 0.2,0 0.1,0.1 0.3,0.2 0.4,0.3 0.1,0.1 -0.1,0.2 -0.2,0.4 -0.1,0.2 -0.1,0.3 -0.2,0.5 0,0.1 0,0.3 0.2,0.3 0.1,0.1 0.3,0 0.4,-0.1 0.2,-0.2 0.3,-0.4 0.5,-0.5 0.2,-0.3 0.6,-0.5 0.9,-0.4 0.6,0 1,0.4 0.9,1.1 z" />
		<path
   id="Path_368"
   class="st5"
   d="m 74.7,71.6 c -0.2,0.1 -0.4,0.2 -0.6,0.4 -0.1,0.1 -0.2,0.2 -0.3,0.3 -0.1,0.1 -0.1,0.3 0,0.4 0.1,0.1 0.3,0.2 0.4,0.1 0.1,0 0.2,-0.1 0.4,-0.1 0.2,-0.1 0.3,-0.2 0.5,-0.2 0.3,-0.1 0.7,0 1,0.3 0.2,0.3 0.3,0.7 0.2,1 -0.2,0.5 -0.6,0.9 -1,1.1 -0.1,0.1 -0.1,0 -0.2,-0.1 -0.1,-0.1 -0.2,-0.3 -0.2,-0.4 0,-0.2 0.2,-0.2 0.3,-0.3 0.1,-0.1 0.3,-0.2 0.4,-0.4 0.1,-0.1 0.1,-0.3 0,-0.4 -0.1,-0.1 -0.2,-0.1 -0.4,-0.1 -0.2,0.1 -0.5,0.2 -0.8,0.3 -0.3,0.2 -0.7,0.1 -1,-0.1 -0.4,-0.3 -0.5,-0.7 -0.3,-1.1 0.2,-0.5 0.6,-1 1.1,-1.2 0.1,0 0.1,0 0.2,0 v 0 c 0.1,0.2 0.2,0.4 0.3,0.5 z" />
		<path
   id="Path_369"
   class="st5"
   d="m 64.4,29.4 c -0.3,-0.2 -0.7,-0.3 -1,-0.3 -0.2,0 -0.3,0 -0.4,0.1 -0.4,0.3 -0.6,0.8 -0.6,1.3 0.1,0.5 0.4,0.8 0.8,0.9 0.1,0 0.3,0.1 0.4,0.1 0.2,0 0.2,0.1 0.2,0.2 0,0.4 0,0.4 -0.5,0.4 -0.2,0 -0.5,-0.1 -0.7,-0.2 -0.7,-0.2 -1.1,-0.8 -1.1,-1.5 0,-0.8 0.4,-1.5 1.1,-1.8 0.7,-0.2 1.4,-0.2 2,0.2 0.1,0.1 0.1,0.1 0,0.2 0,0.1 -0.1,0.3 -0.2,0.4 z" />
		<path
   id="Path_370"
   class="st5"
   d="m 50.8,31.3 c -0.1,0 -0.1,-0.1 0,0 -0.3,-1.1 -0.4,-2 -0.6,-3 -0.1,-0.4 -0.1,-0.4 0.3,-0.4 0.5,-0.1 1,-0.2 1.5,-0.3 0.1,0 0.2,0 0.2,0.1 0.1,0.5 0.1,0.5 -0.4,0.5 -0.2,0 -0.5,0.1 -0.7,0.1 -0.2,0 -0.2,0.1 -0.1,0.2 0,0.1 0.1,0.3 0.1,0.4 0,0.2 0.1,0.2 0.3,0.2 C 51.7,29 52,29 52.3,29 c 0.1,0 0.2,0 0.2,0.1 0.1,0.5 0.1,0.5 -0.4,0.6 -0.2,0 -0.4,0.1 -0.5,0.1 -0.2,0 -0.2,0.1 -0.2,0.3 0.1,0.3 0.1,0.6 0.2,1 0,0.1 0,0.2 -0.2,0.2 -0.3,0 -0.4,0 -0.6,0 z" />
		<path
   id="Path_371"
   class="st5"
   d="m 81.5,49.1 1.4,0.2 c 0.1,0 0.1,0 0.2,0.1 0.1,0.2 0.1,0.5 0.2,0.8 -0.5,-0.1 -0.9,-0.2 -1.4,-0.4 -0.6,-0.2 -1.2,-0.2 -1.8,0 -0.5,0.2 -0.5,0.1 -0.6,-0.4 -0.1,-0.2 0,-0.3 0.2,-0.3 h 0.1 c 0.7,-0.1 1.4,-0.4 1.9,-1 0.3,-0.3 0.6,-0.5 0.9,-0.8 0.1,0.2 0.1,0.5 0.2,0.7 0.1,0.1 0,0.3 -0.1,0.3 -0.4,0.3 -0.8,0.6 -1.2,0.8 z" />
		<path
   id="Path_372"
   class="st5"
   d="m 36.4,40.4 c -0.1,0.2 -0.3,0.4 -0.4,0.6 0,0 -0.1,0 -0.1,-0.1 -0.7,-0.4 -1.3,-0.9 -2,-1.4 -0.2,-0.1 -0.3,-0.1 -0.3,0.1 0,0.1 -0.1,0.1 -0.1,0.2 -0.1,0.1 -0.2,0.3 -0.3,0.3 -0.2,-0.1 -0.3,-0.2 -0.5,-0.3 -0.1,0 0,-0.1 0,-0.1 0.5,-0.7 1,-1.3 1.4,-2 0.1,-0.1 0.1,-0.1 0.2,0 0.1,0.1 0.2,0.2 0.3,0.2 0.1,0.1 0.1,0.1 0,0.2 -0.1,0.2 -0.2,0.3 -0.4,0.5 -0.1,0.1 -0.1,0.2 0,0.3 0.7,0.5 1.3,1 2,1.5 0.2,-0.1 0.2,-0.1 0.2,0 z" />
		<path
   id="Path_373"
   class="st5"
   d="m 55.8,29.4 c 0,-0.4 0,-0.8 0,-1.2 0,-0.1 0,-0.2 -0.2,-0.2 -0.2,0 -0.4,0 -0.6,0 -0.1,0 -0.2,0 -0.1,-0.1 v 0 c 0,-0.5 0,-0.5 0.5,-0.5 0.7,0 1.3,0 2,0 0.2,0 0.2,0 0.2,0.2 0,0.5 0,0.5 -0.5,0.5 -0.5,0 -0.5,0 -0.5,0.5 0,0.7 0,1.4 0,2.1 0,0.1 0,0.2 -0.2,0.2 -0.6,0 -0.6,0 -0.6,-0.6 0,-0.3 0,-0.6 0,-0.9 z" />
		<path
   id="Path_374"
   class="st5"
   d="m 30.5,44.9 c -0.2,-0.1 -0.3,-0.2 -0.5,-0.2 -0.1,0 0,-0.1 0,-0.2 0.3,-0.7 0.7,-1.5 1,-2.2 0,-0.1 0.1,-0.1 0.2,-0.1 0.5,0.2 0.5,0.2 0.3,0.7 -0.2,0.4 -0.2,0.4 0.2,0.6 0.7,0.3 1.3,0.6 2,0.9 0.1,0.1 0.2,0.1 0.1,0.2 -0.1,0.2 -0.1,0.4 -0.3,0.5 C 33.3,45.2 33.2,45 33,44.9 32.4,44.6 31.8,44.3 31.1,44 c -0.1,-0.1 -0.2,0 -0.2,0.1 -0.1,0.2 -0.2,0.4 -0.2,0.6 -0.1,0.1 -0.1,0.2 -0.2,0.2 z" />
		<path
   id="Path_375"
   class="st5"
   d="m 40.8,35.9 c 0,0 -0.1,-0.1 -0.1,-0.2 l -1.4,-1.8 c -0.2,-0.3 -0.2,-0.3 -0.4,-0.1 -0.1,0.1 -0.3,0.2 -0.4,0.3 -0.1,0.1 -0.1,0.1 -0.2,0 -0.3,-0.4 -0.3,-0.4 0.1,-0.7 0.5,-0.4 1.1,-0.8 1.6,-1.2 0.1,-0.1 0.2,-0.1 0.2,0 0.3,0.4 0.3,0.4 -0.1,0.7 -0.4,0.3 -0.4,0.3 -0.1,0.7 0.4,0.6 0.9,1.2 1.3,1.7 0.1,0.1 0.1,0.2 0,0.3 -0.1,0.1 -0.2,0.2 -0.5,0.3 0.1,0 0.1,0 0,0 z" />
		<path
   id="Path_376"
   class="st5"
   d="m 76.9,37 c 0,0 0.1,0 0,0 0.2,0.2 0.4,0.4 0.5,0.5 0.1,0.1 0,0.1 -0.1,0.2 -0.6,0.5 -1.3,1 -1.9,1.5 -0.1,0.1 -0.1,0.2 0,0.3 0.2,0.3 0.4,0.5 0.6,0.8 0.1,0.1 0.1,0.1 0,0.2 -0.4,0.3 -0.4,0.3 -0.7,-0.1 -0.3,-0.4 -0.6,-0.8 -0.9,-1.2 -0.1,-0.1 -0.1,-0.1 0,-0.2 0.7,-0.6 1.6,-1.3 2.5,-2 -0.1,0 0,0 0,0 z" />
		<path
   id="Path_377"
   class="st5"
   d="m 28.1,54.3 c -0.1,0 -0.2,-0.1 -0.2,-0.2 0,-0.6 0,-0.6 0.6,-0.6 0.9,0.1 1.8,0.1 2.8,0.1 0.2,0 0.2,0 0.2,0.2 0,0.1 0,0.2 0,0.2 0,0.4 0,0.4 -0.4,0.3 -0.5,0 -0.9,0 -1.4,-0.1 z" />
		<path
   id="Path_378"
   class="st5"
   d="m 35,42.4 c -0.1,0.2 -0.2,0.4 -0.4,0.6 0,0.1 -0.1,0 -0.1,0 -0.9,-0.5 -1.8,-1.1 -2.8,-1.6 -0.1,0 -0.1,-0.1 -0.1,-0.2 v 0 c 0.3,-0.5 0.3,-0.5 0.8,-0.2 0.8,0.5 1.5,0.9 2.3,1.4 0.2,-0.1 0.3,-0.1 0.3,0 z" />
		<path
   id="Path_379"
   class="st5"
   d="m 33.5,64.8 c 0,0.1 -0.1,0.1 0,0 -1.1,0.5 -2.1,0.9 -3,1.3 -0.1,0 -0.2,0 -0.2,-0.1 -0.3,-0.6 -0.3,-0.6 0.3,-0.8 0.8,-0.3 1.7,-0.7 2.5,-1.1 0.2,-0.1 0.2,0 0.3,0.1 -0.1,0.2 0,0.4 0.1,0.6 z" />
		<path
   id="Path_380"
   class="st5"
   d="m 39.1,72.6 c 0,0.1 -0.1,0.1 0,0 -0.8,0.9 -1.6,1.6 -2.3,2.4 -0.1,0.1 -0.2,0.1 -0.2,0 -0.1,-0.2 -0.4,-0.3 -0.4,-0.4 0,-0.1 0.2,-0.3 0.4,-0.4 0.6,-0.6 1.3,-1.3 1.9,-1.9 0.1,-0.1 0.2,-0.1 0.3,0 0.1,0.1 0.2,0.2 0.3,0.3 -0.1,-0.1 -0.1,-0.1 0,0 z" />
		<path
   id="Path_381"
   class="st5"
   d="m 39.8,76.3 c -0.3,0 -0.5,-0.2 -0.5,-0.5 v 0 c 0,-0.3 0.2,-0.5 0.5,-0.5 v 0 c 0.3,0 0.5,0.2 0.5,0.5 0,0.3 -0.2,0.5 -0.5,0.5 z" />
		<path
   id="Path_382"
   class="st5"
   d="m 71.8,76.3 c -0.3,0 -0.5,-0.2 -0.5,-0.5 v 0 c 0,-0.3 0.2,-0.5 0.5,-0.5 0.3,0 0.5,0.2 0.5,0.5 0,0.3 -0.2,0.5 -0.5,0.5 z" />
		<path
   id="Path_383"
   class="st6"
   d="m 64.3,76.9 c 0.2,0 0.3,0.1 0.5,0.2 l 0.1,0.1 h -0.1 c -0.3,-0.1 -0.5,0 -0.6,0.3 -0.1,0.3 0,0.5 0.3,0.7 0.1,0 0.2,0 0.1,0.2 -0.1,0.2 -0.2,0 -0.2,0 -0.2,-0.1 -0.3,-0.2 -0.5,-0.4 -0.2,-0.2 -0.2,-0.4 -0.1,-0.7 0,-0.3 0.3,-0.4 0.5,-0.4 z" />
		<path
   id="Path_384"
   class="st6"
   d="m 51.7,78.8 c 0,-0.3 0.2,-0.6 0.5,-0.6 v 0 c 0.3,0 0.7,0.2 0.8,0.5 v 0.1 c 0,0.1 -0.1,0 -0.1,0 -0.1,-0.1 -0.3,-0.2 -0.4,-0.2 -0.3,0 -0.5,0.3 -0.4,0.6 0,0.1 0,0.1 0,0.2 0,0.1 0.1,0.1 0.1,0.2 0,0.1 0,0.1 0,0.1 0,0 -0.1,0 -0.1,-0.1 -0.3,-0.3 -0.4,-0.6 -0.4,-0.8 z" />
		<path
   id="Path_385"
   class="st7"
   d="m 62.1,82.2 c 0.1,0 0,-0.1 0.1,-0.2 0,0 0,0.1 -0.1,0.2 z" />
		<path
   id="Path_386"
   class="st8"
   d="m 78.3,54.9 c 0,3.2 -0.6,6.3 -1.9,9.2 -0.8,1.9 -2,3.7 -3.3,5.3 -3.2,3.8 -7.6,6.4 -12.5,7.4 -6.5,1.4 -13.2,-0.1 -18.5,-4.2 -2.7,-2.1 -4.9,-4.7 -6.4,-7.7 -1.2,-2.3 -2,-4.8 -2.2,-7.4 -0.5,-4.2 0.2,-8.4 2,-12.2 1.4,-3 3.6,-5.7 6.2,-7.8 1.8,-1.5 3.9,-2.7 6.2,-3.5 4,-1.5 8.4,-1.8 12.5,-1 4.8,1 9.1,3.5 12.3,7.1 2.8,3.1 4.6,6.8 5.3,10.9 0.2,1.4 0.3,2.7 0.3,3.9 z" />
		<path
   id="Path_387"
   class="st9"
   d="m 60.5,80.9 c 0,0.1 0,0.2 0,0.2 -0.1,0 -0.1,-0.1 0,-0.2 z" />
		<path
   id="Path_388"
   class="st5"
   d="m 60.5,80.9 c 0,0.1 0,0.2 0,0.2 -0.2,0 -0.2,-0.1 0,-0.2 z" />
		<path
   id="Path_389"
   class="st10"
   d="m 55.9,68.9 c -2.7,0 -5.3,-0.4 -7.8,-1.4 -2.4,-0.9 -4.5,-2.3 -6.3,-4.2 -1.2,-1.3 -2.1,-2.8 -2.6,-4.5 -0.1,-0.3 0,-0.7 0.3,-1 0.3,-0.3 0.6,-0.5 1,-0.6 1.2,-0.5 2.4,-0.8 3.6,-1.1 2.1,-0.4 4.2,-0.7 6.3,-0.8 0.2,0 0.2,-0.1 0.1,-0.2 -0.5,-1.1 -0.8,-2.3 -0.9,-3.5 -0.2,-1.9 0,-3.8 0.6,-5.6 0.5,-1.7 1.3,-3.4 2.3,-4.8 0.5,-0.8 1,-1.6 1.5,-2.4 0.7,-1.1 1.2,-2.3 1.4,-3.6 0,-0.2 0.1,-0.2 0.2,-0.2 0.4,0 0.4,0 0.4,0.4 0.3,1.4 0.8,2.7 1.6,3.9 0.6,1 1.3,2 1.9,3 0.3,0.4 0.5,0.9 0.7,1.3 0.8,1.4 1.3,3 1.5,4.6 0.4,2.3 0.1,4.7 -0.8,6.9 -0.1,0.3 -0.1,0.3 0.2,0.3 2.6,0.2 5.3,0.6 7.8,1.2 0.8,0.2 1.5,0.5 2.2,0.8 0.4,0.2 0.8,0.5 0.9,1 0,0.1 0,0.2 0,0.3 -0.6,2.1 -1.8,4.1 -3.4,5.6 -0.6,0.6 -1.3,1.1 -2,1.6 -2.2,1.4 -4.5,2.3 -7,2.7 -0.4,0.1 -0.8,0.1 -1.3,0.2 -0.7,0.1 -1.5,0.2 -2.4,0.1 z" />
		<path
   id="Path_390"
   class="st5"
   d="m 43.8,69 c 0.8,0.1 1.6,0.3 2.4,0.4 1.7,0.3 3.4,0.6 5.1,0.9 0.1,0 0.2,0 0.3,0.1 l -0.9,1 8.1,0.7 -0.8,0.7 7.7,0.3 v 0.1 l -10.3,1 1.3,-1.2 -8.4,-0.8 1.4,-1 z" />
		<path
   id="Path_391"
   class="st11"
   d="m 43.8,69 v 0 h -0.2 c 0,-0.1 0.1,-0.1 0.2,0 z" />
		<path
   id="Path_392"
   class="st0"
   d="m 40.3,59.7 c 1,0.3 2.1,0.6 3.1,0.8 0.9,0.2 1.8,0.3 2.7,0.4 1.1,0.1 2.2,0.2 3.3,0.2 1.5,0 2.9,-0.3 4.3,-0.6 0.7,-0.2 1.3,-0.3 1.9,-0.6 0.1,0 0.2,0 0.3,0 1.3,0.5 2.6,0.8 3.9,1 0.6,0.1 1.2,0.1 1.8,0.2 0.7,0.1 1.4,0 2.1,0 0.9,-0.1 1.8,-0.2 2.6,-0.3 1.2,-0.2 2.4,-0.4 3.6,-0.7 0.4,-0.1 0.7,-0.2 1.1,-0.4 -0.1,0.4 -0.3,0.8 -0.5,1.1 -1,1.8 -2.4,3.3 -4.1,4.4 -2,1.4 -4.3,2.3 -6.7,2.8 -1.1,0.2 -2.2,0.3 -3.3,0.4 -1.3,0.1 -2.5,0 -3.8,-0.2 -1.8,-0.2 -3.6,-0.7 -5.3,-1.4 -1.5,-0.6 -2.9,-1.4 -4.1,-2.5 -0.7,-0.6 -1.3,-1.2 -1.9,-1.9 -0.1,-0.8 -0.6,-1.7 -1,-2.7 0,0.1 0,0 0,0 z" />
		<path
   id="Path_393"
   class="st5"
   d="m 58.4,50.7 c 0.3,-0.6 0.4,-1.3 0.3,-2 0,-0.5 -0.2,-1.1 -0.2,-1.6 -0.1,-0.8 -0.2,-1.6 -0.1,-2.4 0,-0.1 0,-0.2 0,-0.2 0.1,-0.1 0,-0.3 -0.1,-0.4 -0.1,-0.1 -0.3,-0.1 -0.4,0 -0.2,0.1 -0.3,0.3 -0.5,0.4 l -0.5,-1.2 -0.7,1 C 56,44.2 56,43.9 55.8,43.9 c -0.2,0 -0.3,0.2 -0.4,0.3 l -0.7,-0.9 c -0.2,0.4 -0.4,0.8 -0.6,1.2 C 53.9,44.4 53.8,44.2 53.6,44.1 53.5,44 53.3,43.9 53.2,44 53,44.1 53,44.2 53.1,44.4 c 0.1,0.4 0.1,0.9 0,1.3 0,0.8 -0.1,1.5 -0.3,2.2 -0.2,0.9 -0.1,1.9 0.2,2.7 -0.4,0 -0.8,0.1 -1.1,0.2 -0.2,0.1 -0.3,0.2 -0.3,0.3 0,0.2 0.1,0.2 0.3,0.3 0.2,0 0.3,0.2 0.4,0.4 0.1,0.1 0,0.1 -0.1,0.2 -0.2,0.1 -0.3,0.2 -0.5,0.3 -0.2,0.2 -0.2,0.4 0,0.5 0.2,0.2 0.5,0.3 0.7,0.5 0.4,0.4 1,0.6 1.5,0.6 0.1,0 0.2,0 0.2,0.1 0.1,0.5 0.4,0.9 0.8,1.3 0.1,0.1 0.2,0.2 0.2,0.3 0,1.2 0,2.3 0,3.5 0,0.2 0,0.2 -0.2,0.3 -0.3,0.1 -0.5,0.2 -0.8,0.2 -0.1,0 -0.2,0.1 -0.3,-0.1 -1.2,-1.5 -2.1,-3.1 -2.9,-4.8 -1.2,-3 -1.2,-6.4 0,-9.5 0.5,-1.4 1.2,-2.7 2,-3.9 0.3,-0.5 0.6,-0.9 0.9,-1.4 0.8,-1.1 1.4,-2.3 1.8,-3.5 0.1,0.2 0.1,0.3 0.2,0.5 0.4,1.1 1,2.2 1.7,3.2 0.8,1.2 1.6,2.4 2.2,3.7 0.7,1.4 1.1,2.8 1.4,4.3 0.3,2.2 0.1,4.4 -0.8,6.4 -0.8,1.7 -1.7,3.3 -2.9,4.8 -0.1,0.1 -0.2,0.1 -0.3,0.1 -0.2,-0.1 -0.5,-0.2 -0.8,-0.2 -0.1,0 -0.2,-0.1 -0.2,-0.2 0,-1.2 0,-2.4 0,-3.6 0,-0.1 0,-0.2 0.1,-0.3 0.4,-0.3 0.7,-0.8 0.9,-1.3 0,-0.1 0.1,-0.1 0.2,-0.1 0.5,0 1,-0.2 1.4,-0.5 0.2,-0.2 0.5,-0.4 0.8,-0.5 0.1,-0.1 0.2,-0.2 0.1,-0.4 l -0.1,-0.1 c -0.2,-0.1 -0.4,-0.3 -0.5,-0.4 -0.1,-0.1 -0.1,-0.1 -0.1,-0.2 0.1,-0.2 0.2,-0.3 0.5,-0.3 0.2,0 0.3,-0.1 0.3,-0.3 0,-0.1 -0.1,-0.3 -0.2,-0.3 -0.3,0 -0.7,0 -1.1,0 z" />
		<path
   id="Path_394"
   class="st5"
   d="m 58.1,59.9 c 0.5,-0.7 1,-1.4 1.5,-2.1 0.2,-0.3 0.4,-0.7 0.6,-1.1 0.2,-0.2 0.3,-0.4 0.4,-0.7 0,-0.1 0.2,-0.1 0.2,-0.1 0.9,0.1 1.9,0.2 2.8,0.3 1.8,0.2 3.6,0.5 5.3,1 0.7,0.2 1.3,0.4 1.9,0.7 0.2,0.1 0.4,0.2 0.5,0.3 0.4,0.3 0.4,0.5 0,0.7 -0.2,0.1 -0.4,0.2 -0.6,0.3 -1,0.3 -2,0.6 -3.1,0.7 -1.4,0.2 -2.8,0.4 -4.2,0.5 -1,0 -2,0 -2.9,-0.1 -0.7,-0.1 -1.5,-0.2 -2.2,-0.4 0,0 -0.1,0 -0.2,0 z" />
		<path
   id="Path_395"
   class="st5"
   d="m 48.7,60.4 c -1.2,0 -2.4,-0.1 -3.5,-0.3 -1.3,-0.2 -2.7,-0.4 -3.9,-0.8 -0.4,-0.1 -0.7,-0.2 -1.1,-0.4 -0.3,-0.2 -0.3,-0.4 0,-0.6 0.5,-0.3 1,-0.6 1.6,-0.8 1.5,-0.5 3.1,-0.8 4.7,-1 1.4,-0.2 2.9,-0.4 4.3,-0.5 0.1,0 0.2,0 0.3,0.1 0.7,1.3 1.4,2.5 2.3,3.6 0.1,0.2 0.1,0.2 -0.1,0.2 -1.6,0.4 -3.1,0.5 -4.6,0.5 z" />
		<path
   id="Path_396"
   class="st12"
   d="m 55.8,44.7 c 0.7,1.1 1.1,2.4 1.4,3.7 0.2,0.8 0.1,1.5 -0.1,2.2 -0.2,0.5 -0.4,0.9 -0.8,1.2 -0.3,0.2 -0.7,0.2 -0.9,0 -0.5,-0.5 -0.9,-1.2 -1,-1.9 -0.1,-1.4 0.2,-2.9 0.9,-4.2 0.1,-0.3 0.3,-0.6 0.5,-1 z" />
		<path
   id="Path_397"
   class="st12"
   d="m 55.9,52.6 c 0.6,0 1,0.5 1,1.1 0,0.2 -0.1,0.3 -0.1,0.5 -0.2,0.3 -0.5,0.6 -0.8,0.9 -0.1,0.1 -0.1,0 -0.2,0 -0.2,-0.2 -0.5,-0.5 -0.7,-0.7 -0.4,-0.5 -0.2,-1.2 0.3,-1.6 0,0 0,0 0.1,0 0.1,-0.1 0.2,-0.2 0.4,-0.2 z" />
		<path
   id="Path_398"
   class="st12"
   d="m 57.8,45 c 0,1.3 0.1,2.6 0.3,3.8 0.1,0.6 -0.1,1.3 -0.4,1.8 0,-0.2 0.1,-0.4 0.1,-0.6 0.1,-1.2 -0.1,-2.4 -0.6,-3.6 0,-0.1 -0.1,-0.2 -0.1,-0.2 -0.2,-0.5 -0.2,-0.5 0.2,-0.9 0.2,-0.1 0.3,-0.2 0.5,-0.3 z" />
		<path
   id="Path_399"
   class="st12"
   d="m 53.7,50.5 c -0.2,-0.4 -0.3,-0.8 -0.3,-1.3 0,-0.6 0.1,-1.1 0.2,-1.7 0.1,-0.8 0.2,-1.6 0.2,-2.4 0,-0.1 0,-0.1 0,-0.2 0.3,0.2 0.5,0.4 0.7,0.6 0.1,0.1 0.1,0.2 0,0.3 -0.3,0.6 -0.5,1.3 -0.7,2 -0.2,0.8 -0.2,1.7 -0.1,2.5 0.1,0.1 0.1,0.2 0,0.2 z" />
		<path
   id="Path_400"
   class="st12"
   d="m 52.6,52.6 c 0.6,-0.4 1.3,-0.5 2,-0.2 0.1,0 0.2,0.1 0.1,0.2 -0.2,0.2 -0.3,0.4 -0.3,0.6 0,0.2 -0.1,0.2 -0.3,0.2 -0.4,0 -0.8,-0.2 -1.1,-0.5 z" />
		<path
   id="Path_401"
   class="st12"
   d="m 56.9,52.4 c 0.6,-0.2 1.4,-0.2 2,0.2 0.1,0 0.1,0.1 0,0.1 -0.3,0.4 -0.8,0.6 -1.3,0.7 -0.1,0 -0.2,0 -0.2,-0.1 -0.1,-0.4 -0.3,-0.7 -0.5,-0.9 z" />
		<path
   id="Path_402"
   class="st13"
   d="m 52.8,51.3 c 0.3,-0.2 0.7,0 0.9,0.3 -0.1,0 -0.2,0 -0.3,0 -0.4,0.1 -0.4,0.1 -0.6,-0.3 z" />
		<path
   id="Path_403"
   class="st13"
   d="m 57.8,51.6 c 0.2,-0.4 0.6,-0.3 0.9,-0.3 -0.2,0.5 -0.2,0.5 -0.9,0.3 z" />
		<path
   id="Path_404"
   class="st14"
   d="m 56.8,44.4 c 0.1,0.2 0.3,0.3 0.1,0.5 -0.1,0 -0.1,0.2 -0.2,0.1 -0.1,-0.1 -0.2,-0.2 -0.1,-0.3 0,0 0.1,-0.1 0.2,-0.3 z" />
		<path
   id="Path_405"
   class="st14"
   d="m 55,44.8 c 0,0.1 -0.1,0.2 -0.2,0.3 0,0 -0.1,-0.1 -0.2,-0.1 -0.1,-0.1 0,-0.2 0,-0.2 0,0 0,-0.2 0.1,-0.2 0.3,0 0.3,0.1 0.3,0.2 z" />
	</g>
	
</g>
</svg>
