<svg xmlns="http://www.w3.org/2000/svg" width="250.391" height="187.097" viewBox="0 0 250.391 187.097">
  <g>
    <g>
      <path d="M.569,30.254H6.545V82.782H.569Z" fill="#f7f7f8"/>
      <path d="M35.53,38.059c0-2.4-1.154-3.562-3.084-3.562-2.408,0-3.081,1.735-3.081,3.755V44.13c0,1.544.673,2.989,2.216,5.207L39.1,59.846c1.447,2.02,2.118,3.369,2.118,5.779v8.868c0,5.685-3.181,8.866-8.96,8.866-4.916,0-8.869-2.314-8.869-8.193V66.008h5.978v8.1c0,2.413.383,4.436,2.984,4.436,2.411,0,2.893-2.122,2.893-4.534V67.649a9.684,9.684,0,0,0-2.217-5.783l-6.842-9.35c-1.732-2.311-2.8-4.141-2.8-7.029V38.739c0-5.786,3.953-9.061,9.35-9.061,6.361,0,8.384,4.337,8.384,7.519V45.87H35.53Z" fill="#f7f7f8"/>
      <path d="M71.938,38.93c0-3.186-1.061-4.433-3.473-4.433-3.369,0-3.851,2.026-3.851,5.1v4.916H58.637V38.35c0-5.4,4.529-8.672,10.024-8.672,5.785,0,9.252,2.411,9.252,9.156V82.782H72.322v-2.8h-.191a7.908,7.908,0,0,1-6.94,3.375c-4.626,0-7.13-3.375-7.13-8.673V60.422c0-6.554,4.432-10.121,13.877-10.121Zm0,16.189c-3.085,0-7.9,1.254-7.9,5.685V72.758c0,3.759.576,5.782,3.754,5.782,2.6,0,4.146-1.929,4.146-5.393Z" fill="#f7f7f8"/>
      <path d="M108.629,65.821h5.978V73.24c0,8-4.819,10.119-9.927,10.119s-9.924-2.12-9.924-10.119V39.8c0-8,4.818-10.119,9.924-10.119s9.927,2.118,9.927,10.119V58.014H100.731V73.24c0,3.856,1.542,5.3,3.949,5.3s3.949-1.444,3.949-5.3Zm0-26.024c0-3.854-1.538-5.3-3.949-5.3s-3.949,1.446-3.949,5.3V52.614h7.9Z" fill="#f7f7f8"/>
    </g>
    <g>
      <path d="M146.185,35.121l-.054.019.054-.018Z" fill="#f7f7f8"/>
      <polygon points="208.663 9.258 208.968 13.294 209.281 9.258 216.837 15.744 216.835 15.741 216.838 15.743 210.35 8.189 211.855 8.071 214.385 7.874 214.381 7.873 214.385 7.873 211.956 7.691 210.35 7.57 216.837 0.001 216.836 0.001 216.838 0 209.281 6.5 209.281 6.5 209.281 6.5 208.978 2.472 208.667 6.504 201.107 0.021 207.597 7.576 203.562 7.889 207.597 8.189 201.099 15.758 208.663 9.258" fill="#f7f7f8"/>
      <path d="M147.328,22.248c.7,2.307,1.4,11.019,1.4,11.019L190.412,13.8l-47.19,5.473S146.619,19.942,147.328,22.248Z" fill="#f7f7f8"/>
      <path d="M227.025,44.517A74.8,74.8,0,0,1,246.016,50.8a63.424,63.424,0,0,0-16.225-7.351c9.234-3.828,11.641-7.556,11.641-7.556a35.387,35.387,0,0,1-9.715,4.565C246.46,34.212,250.391,18.1,250.391,18.1a19.39,19.39,0,0,1-5.711,4.723c3.7-2.867,5.6-9.389,5.6-9.389s-2.123,3.806-8.248,7.933c6.137-6.907,6.065-12.723,6.065-12.723-1.528,10.916-18.08,19.651-22.322,21.189-4,1.3-6.209,2.72-7.435,3.91a10.367,10.367,0,0,0-1.046-2.651c-1.643-2.921-4.458-1.245-4.826-1.012-.43-.027-3.709-.125-3.726,3.227a10.366,10.366,0,0,0,.363,2.776c-1.656-.425-4.254-.569-8.3.215-4.456.716-23.167,1.117-29.8-7.684,0,0,2.761,5.119,11.478,8.177-7.361-.633-11.064-2.931-11.064-2.931s4.828,4.78,9.457,5.487A19.378,19.378,0,0,1,173.589,38a36.507,36.507,0,0,0,7.635,5.885c-16.348,4.841-29.669,14-37.5,25.121-34.336-20.482-.737-32.777,2.257-33.809-31.139,10.569-18.848,26.855-4.8,37.816a39.168,39.168,0,0,0-4.809,13.956c5.48-18.314,24.349-34.252,49.323-40.835a30.4,30.4,0,0,0,15.071,2.343,35.469,35.469,0,0,1-10.711.73s6.193,3.31,22.778-.666c.511-.124.917-.225,1.209-.3a10.928,10.928,0,0,1-2.122,8.028,9.739,9.739,0,0,1,7.538,1.008l.024.1,0,0c.011-.019.024-.033.035-.054a.572.572,0,0,0,.056.035h.006l-.029-.1a9.757,9.757,0,0,1,6.1-4.539,10.926,10.926,0,0,1-5.751-5.987c.359-.091.885-.229,1.346-.368C223.384,45.759,225.3,45.141,227.025,44.517Z" fill="#f7f7f8"/>
    </g>
    <g>
      <path d="M12.526,138.286v-8.052q0-3.675-3.182-3.678t-3.18,3.877V136.5q0,2.188,2.286,5.368L16.2,152.7a10.376,10.376,0,0,1,2.186,5.965v9.146q0,9.147-9.245,9.145Q0,176.957,0,168.507v-9.444H6.164v8.351q0,4.574,3.08,4.573,2.984,0,2.983-4.673v-6.561a10.094,10.094,0,0,0-2.286-5.965l-7.059-9.642Q0,141.171,0,137.889V130.93a8.861,8.861,0,0,1,2.7-6.859,9.924,9.924,0,0,1,7-2.486q4.5,0,6.795,2.685a7.258,7.258,0,0,1,1.9,5.07v8.946Z" fill="#f7f7f8"/>
      <path d="M54.376,122.182v54.179H48.61v-3.679h-.2a7.99,7.99,0,0,1-7.157,4.275,6.724,6.724,0,0,1-5.567-2.485,8.656,8.656,0,0,1-1.79-5.666V122.182H40.06v44.237q0,4.974,3.878,4.971a3.711,3.711,0,0,0,3.181-1.689,5.161,5.161,0,0,0,1.093-3.282V122.182Z" fill="#f7f7f8"/>
      <path d="M69.784,187.1V122.182H75.55v3.38h.4q1.569-3.975,6.471-3.977,7.844,0,7.845,10.538v36.384a9.216,9.216,0,0,1-1.967,6.064,6.4,6.4,0,0,1-5.191,2.386q-5.043,0-7.158-3.976V187.1ZM84.1,165.127V132.322q0-5.764-3.579-5.766-4.573,0-4.573,5.965v32.905A7.017,7.017,0,0,0,77.19,169.7a3.83,3.83,0,0,0,3.23,1.689Q84.1,171.39,84.1,165.127Z" fill="#f7f7f8"/>
      <path d="M105.968,176.361V122.182h5.767v3.679h.2q2.883-4.275,7.157-4.276a6.327,6.327,0,0,1,5.766,3.381,8.127,8.127,0,0,1,6.363-3.381,6.626,6.626,0,0,1,5.468,2.337,8.958,8.958,0,0,1,1.888,5.815v46.624h-6.164V131.825q0-4.671-3.081-4.672-3.978,0-3.977,4.97v44.238h-6.164V131.825q0-4.671-3.08-4.672-3.979,0-3.977,4.97v44.238Z" fill="#f7f7f8"/>
      <path d="M168.6,166.52v-7.656h6.164v7.656q0,10.437-10.239,10.437T154.281,166.52v-34.5q0-10.437,10.239-10.438t10.239,10.438v18.79H160.444V166.52q0,5.467,4.076,5.467T168.6,166.52Zm0-21.275V132.023q0-5.466-4.075-5.467t-4.076,5.467v13.222Zm-3.677-40.659h6.959l-6.362,10.736h-4.971Z" fill="#f7f7f8"/>
      <path d="M202.593,139.38v-8.35q0-4.473-2.882-4.474-3.381,0-3.381,4.474v36.881q0,4.077,3.083,4.076,3.18,0,3.18-4.076v-8.748h6.164v8.649q0,9.147-9.245,9.145a10.52,10.52,0,0,1-6.66-2.087,7.22,7.22,0,0,1-2.684-6.064V132.023q0-10.437,10.238-10.438,8.352,0,8.351,8.749v9.046Z" fill="#f7f7f8"/>
      <path d="M238.48,142.86V131.129q0-4.57-3.579-4.573-3.977,0-3.977,5.269v5.07h-6.163v-6.362a7.982,7.982,0,0,1,2.983-6.512,11.247,11.247,0,0,1,7.356-2.436q9.543,0,9.544,9.445v45.331h-5.767v-2.883h-.2a8.756,8.756,0,0,1-7.158,3.479q-7.357,0-7.356-8.947V153.3Q224.165,142.858,238.48,142.86Zm0,23.559V147.83a10.862,10.862,0,0,0-5.27,1.193,5.058,5.058,0,0,0-2.882,4.672v12.327q0,5.966,3.878,5.965Q238.478,171.987,238.48,166.419Z" fill="#f7f7f8"/>
    </g>
    <rect x="0.081" y="99.45" width="244.446" height="5.353" fill="#f24d21"/>
  </g>
</svg>
